<svg width="102" height="109" viewBox="0 0 102 109" fill="none" xmlns="http://www.w3.org/2000/svg">
<path d="M101.021 23.9911L51.6531 0.158317C51.2154 -0.0527724 50.7057 -0.0527724 50.2682 0.158317L0.900211 23.9911C0.349763 24.2567 0 24.8142 0 25.4254V83.3049C0 83.9161 0.349763 84.4736 0.900211 84.7393L50.268 108.572C50.4868 108.678 50.7238 108.73 50.9606 108.73C51.1973 108.73 51.4341 108.678 51.6531 108.572L101.021 84.7393C101.571 84.4736 101.921 83.9161 101.921 83.3049V25.4256C101.921 24.814 101.571 24.257 101.021 23.9911ZM50.9606 3.3614L96.6649 25.4254L83.4161 31.8214C83.3322 31.7574 83.2437 31.6984 83.1464 31.6515L37.7526 9.73763L50.9606 3.3614ZM34.1556 11.5385L79.7934 33.5704L70.4462 38.0829L24.8273 16.0599L34.1556 11.5385ZM80.8612 36.5919V53.2722L72.1303 57.4872V40.8069L80.8612 36.5919ZM98.7356 82.3056L52.5533 104.6V50.2577L63.5692 44.9397C64.3613 44.5572 64.6935 43.6052 64.311 42.8129C63.9286 42.021 62.9765 41.6884 62.1842 42.0711L50.9606 47.4896L46.5442 45.3574C45.7519 44.9745 44.7999 45.3071 44.4174 46.0992C44.0349 46.8913 44.3671 47.8436 45.1592 48.226L49.3678 50.2577V104.6L3.18546 82.3051V27.9629L38.3529 44.9403C38.5761 45.0482 38.8121 45.0992 39.0442 45.0992C39.6362 45.0992 40.205 44.7675 40.4795 44.1986C40.862 43.4064 40.5299 42.4542 39.7378 42.0717L5.25622 25.4254L21.0784 17.7871L68.9227 40.8844C68.9297 40.8942 68.9376 40.9029 68.9448 40.9124V60.025C68.9448 60.5731 69.2266 61.0826 69.6908 61.3741C69.9486 61.5359 70.2428 61.6177 70.5377 61.6177C70.7739 61.6177 71.0107 61.5653 71.23 61.4593L83.1464 55.7066C83.6969 55.4409 84.0466 54.8837 84.0466 54.2723V35.0544L98.7356 27.9631V82.3056Z" fill="#282828"/>
<path d="M16.3295 76.1281L9.08469 72.6307C8.29215 72.2478 7.34033 72.5803 6.95787 73.3724C6.5754 74.1646 6.90754 75.1168 7.69965 75.4993L14.9444 78.9967C15.1676 79.1046 15.4036 79.1555 15.6357 79.1555C16.2278 79.1555 16.7965 78.8238 17.0711 78.2549C17.4537 77.4626 17.1216 76.5108 16.3295 76.1281Z" fill="#282828"/>
<path d="M22.9971 71.7878L9.09469 65.0763C8.30236 64.6938 7.35033 65.0259 6.96786 65.8183C6.58561 66.6104 6.91775 67.5626 7.70986 67.9451L21.6123 74.6566C21.8355 74.7643 22.0714 74.8155 22.3035 74.8155C22.8956 74.8155 23.4643 74.4838 23.7389 73.9149C24.1214 73.1223 23.7892 72.1701 22.9971 71.7878Z" fill="#282828"/>
</svg>
