<svg width="125" height="80" viewBox="0 0 125 80" fill="none" xmlns="http://www.w3.org/2000/svg">
<path d="M116.083 34.4228L112.85 21.4934C113.734 21.3057 114.397 20.5217 114.397 19.5823V17.4977C114.397 12.9715 110.715 9.28928 106.189 9.28928H91.4656V4.98931C91.4656 2.76204 89.6538 0.950195 87.4265 0.950195H12.3777C10.1504 0.950195 8.33859 2.76204 8.33859 4.98931V40.4291C8.33859 41.5083 9.21355 42.3835 10.2931 42.3835C11.3723 42.3835 12.2475 41.5086 12.2475 40.4291V4.98931C12.2475 4.91739 12.3058 4.85912 12.3777 4.85912H87.4262C87.4982 4.85912 87.5564 4.91739 87.5564 4.98931V40.4295C87.5564 41.5088 88.4314 42.384 89.5109 42.384C90.5902 42.384 91.4654 41.509 91.4654 40.4295V38.214H114.52C114.522 38.214 114.524 38.2145 114.525 38.2145C114.527 38.2145 114.529 38.2142 114.531 38.2142C117.368 38.2162 119.777 40.0782 120.604 42.6441H114.527C113.448 42.6441 112.572 43.5191 112.572 44.5986V48.7679C112.572 52.1446 115.319 54.8917 118.696 54.8917H120.911V63.4908H115.801C114.122 58.6436 109.514 55.152 104.103 55.152C98.6925 55.152 94.0844 58.6436 92.4059 63.4908H91.4649V48.7677C91.4649 47.6884 90.5899 46.8132 89.5104 46.8132C88.4311 46.8132 87.5559 47.6881 87.5559 48.7677V63.4904H47.0068C45.3281 58.6431 40.7202 55.1515 35.3093 55.1515C29.8984 55.1515 25.2903 58.6431 23.6118 63.4904H12.3777C12.3058 63.4904 12.2475 63.4321 12.2475 63.3602V59.0605H20.7165C21.7958 59.0605 22.671 58.1855 22.671 57.106C22.671 56.0265 21.796 55.1515 20.7165 55.1515H1.95446C0.875206 55.1515 0 56.0265 0 57.106C0 58.1855 0.874962 59.0605 1.95446 59.0605H8.33884V63.3602C8.33884 65.5874 10.1507 67.3993 12.3779 67.3993H22.935C22.9345 67.4427 22.9316 67.4858 22.9316 67.5295C22.9316 74.3546 28.4844 79.9072 35.3093 79.9072C42.1342 79.9072 47.687 74.3546 47.687 67.5295C47.687 67.4856 47.6841 67.4427 47.6836 67.3993H91.7291C91.7287 67.4427 91.7257 67.4858 91.7257 67.5295C91.7257 74.3546 97.2785 79.9072 104.103 79.9072C110.928 79.9072 116.481 74.3546 116.481 67.5295C116.481 67.4856 116.478 67.4427 116.478 67.3993H122.866C123.945 67.3993 124.82 66.5243 124.82 65.4448V44.5981C124.82 39.4512 121.023 35.1749 116.083 34.4228ZM91.4656 13.198H106.189C108.559 13.198 110.488 15.1268 110.488 17.4977V17.6279H91.4656V13.198ZM91.4656 34.3053V21.5366H108.832L112.024 34.3053H91.4656ZM35.3093 75.999C30.6395 75.999 26.8403 72.2 26.8403 67.53C26.8403 62.8599 30.6395 59.0609 35.3093 59.0609C39.9791 59.0609 43.7783 62.8599 43.7783 67.53C43.7783 72.2 39.9791 75.999 35.3093 75.999ZM104.104 75.999C99.4341 75.999 95.6349 72.2 95.6349 67.53C95.6349 62.8599 99.4341 59.0609 104.104 59.0609C108.774 59.0609 112.573 62.8599 112.573 67.53C112.573 72.2 108.774 75.999 104.104 75.999ZM120.912 50.9827H118.697C117.475 50.9827 116.482 49.989 116.482 48.7677V46.5526H120.912V50.9827H120.912Z" fill="#282828"/>
<path d="M35.3093 63.4907C33.082 63.4907 31.2701 65.3026 31.2701 67.5298C31.2701 69.7571 33.082 71.569 35.3093 71.569C37.5365 71.569 39.3484 69.7571 39.3484 67.5298C39.3484 65.3026 37.5365 63.4907 35.3093 63.4907Z" fill="#282828"/>
<path d="M104.104 63.4907C101.877 63.4907 100.065 65.3026 100.065 67.5298C100.065 69.7571 101.877 71.569 104.104 71.569C106.331 71.569 108.143 69.7571 108.143 67.5298C108.143 65.3026 106.331 63.4907 104.104 63.4907Z" fill="#282828"/>
<path d="M81.1724 55.1519H51.9868C50.9076 55.1519 50.0323 56.0268 50.0323 57.1063C50.0323 58.1858 50.9073 59.0608 51.9868 59.0608H81.1724C82.2516 59.0608 83.1268 58.1858 83.1268 57.1063C83.1268 56.0268 82.2519 55.1519 81.1724 55.1519Z" fill="#282828"/>
<path d="M31.14 46.8135H6.12378C5.04452 46.8135 4.16931 47.6884 4.16931 48.7679C4.16931 49.8474 5.04427 50.7224 6.12378 50.7224H31.14C32.2193 50.7224 33.0945 49.8474 33.0945 48.7679C33.0945 47.6884 32.2193 46.8135 31.14 46.8135Z" fill="#282828"/>
<path d="M67.9615 20.2847C67.1984 19.5216 65.9607 19.5216 65.1976 20.2849L47.8173 37.6649L38.7759 28.6235C38.0126 27.8602 36.7751 27.8602 36.0121 28.6235C35.2487 29.3868 35.2487 30.624 36.0121 31.3874L46.4355 41.8108C46.8171 42.1926 47.3173 42.3833 47.8173 42.3833C48.3174 42.3833 48.8179 42.1926 49.1991 41.8108L67.9612 23.0488C68.7245 22.2852 68.7245 21.048 67.9615 20.2847Z" fill="#282828"/>
</svg>
