<svg width="125" height="79" viewBox="0 0 125 79" fill="none" xmlns="http://www.w3.org/2000/svg">
<path d="M116.083 33.4726L112.85 20.5432C113.734 20.3555 114.397 19.5715 114.397 18.6321V16.5475C114.397 12.0213 110.715 8.33908 106.189 8.33908H91.4656V4.03911C91.4656 1.81185 89.6538 0 87.4265 0H12.3777C10.1504 0 8.33859 1.81185 8.33859 4.03911V39.4789C8.33859 40.5581 9.21355 41.4333 10.2931 41.4333C11.3723 41.4333 12.2475 40.5584 12.2475 39.4789V4.03911C12.2475 3.96719 12.3058 3.90893 12.3777 3.90893H87.4262C87.4982 3.90893 87.5564 3.96719 87.5564 4.03911V39.4794C87.5564 40.5586 88.4314 41.4338 89.5109 41.4338C90.5902 41.4338 91.4654 40.5589 91.4654 39.4794V37.2638H114.52C114.522 37.2638 114.524 37.2643 114.525 37.2643C114.527 37.2643 114.529 37.264 114.531 37.264C117.368 37.266 119.777 39.128 120.604 41.6939H114.527C113.448 41.6939 112.572 42.5689 112.572 43.6484V47.8177C112.572 51.1944 115.319 53.9415 118.696 53.9415H120.911V62.5407H115.801C114.122 57.6934 109.514 54.2018 104.103 54.2018C98.6925 54.2018 94.0844 57.6934 92.4059 62.5407H91.4649V47.8175C91.4649 46.7382 90.5899 45.863 89.5104 45.863C88.4311 45.863 87.5559 46.738 87.5559 47.8175V62.5402H47.0068C45.3281 57.6929 40.7202 54.2013 35.3093 54.2013C29.8984 54.2013 25.2903 57.6929 23.6118 62.5402H12.3777C12.3058 62.5402 12.2475 62.4819 12.2475 62.41V58.1103H20.7165C21.7958 58.1103 22.671 57.2353 22.671 56.1558C22.671 55.0763 21.796 54.2013 20.7165 54.2013H1.95446C0.875206 54.2013 0 55.0763 0 56.1558C0 57.2353 0.874962 58.1103 1.95446 58.1103H8.33884V62.41C8.33884 64.6373 10.1507 66.4491 12.3779 66.4491H22.935C22.9345 66.4925 22.9316 66.5357 22.9316 66.5793C22.9316 73.4044 28.4844 78.957 35.3093 78.957C42.1342 78.957 47.687 73.4044 47.687 66.5793C47.687 66.5354 47.6841 66.4925 47.6836 66.4491H91.7291C91.7287 66.4925 91.7257 66.5357 91.7257 66.5793C91.7257 73.4044 97.2785 78.957 104.103 78.957C110.928 78.957 116.481 73.4044 116.481 66.5793C116.481 66.5354 116.478 66.4925 116.478 66.4491H122.866C123.945 66.4491 124.82 65.5741 124.82 64.4946V43.6479C124.82 38.501 121.023 34.2247 116.083 33.4726ZM91.4656 12.2478H106.189C108.559 12.2478 110.488 14.1766 110.488 16.5475V16.6777H91.4656V12.2478ZM91.4656 33.3551V20.5864H108.832L112.024 33.3551H91.4656ZM35.3093 75.0488C30.6395 75.0488 26.8403 71.2498 26.8403 66.5798C26.8403 61.9097 30.6395 58.1108 35.3093 58.1108C39.9791 58.1108 43.7783 61.9097 43.7783 66.5798C43.7783 71.2498 39.9791 75.0488 35.3093 75.0488ZM104.104 75.0488C99.4341 75.0488 95.6349 71.2498 95.6349 66.5798C95.6349 61.9097 99.4341 58.1108 104.104 58.1108C108.774 58.1108 112.573 61.9097 112.573 66.5798C112.573 71.2498 108.774 75.0488 104.104 75.0488ZM120.912 50.0325H118.697C117.475 50.0325 116.482 49.0388 116.482 47.8175V45.6024H120.912V50.0325H120.912Z" fill="#282828"/>
<path d="M35.3093 62.5405C33.082 62.5405 31.2701 64.3524 31.2701 66.5796C31.2701 68.8069 33.082 70.6188 35.3093 70.6188C37.5365 70.6188 39.3484 68.8069 39.3484 66.5796C39.3484 64.3524 37.5365 62.5405 35.3093 62.5405Z" fill="#282828"/>
<path d="M104.104 62.5405C101.877 62.5405 100.065 64.3524 100.065 66.5796C100.065 68.8069 101.877 70.6188 104.104 70.6188C106.331 70.6188 108.143 68.8069 108.143 66.5796C108.143 64.3524 106.331 62.5405 104.104 62.5405Z" fill="#282828"/>
<path d="M81.1724 54.2017H51.9868C50.9076 54.2017 50.0323 55.0766 50.0323 56.1561C50.0323 57.2356 50.9073 58.1106 51.9868 58.1106H81.1724C82.2516 58.1106 83.1268 57.2356 83.1268 56.1561C83.1268 55.0766 82.2519 54.2017 81.1724 54.2017Z" fill="#282828"/>
<path d="M31.14 45.8633H6.12378C5.04452 45.8633 4.16931 46.7382 4.16931 47.8177C4.16931 48.8972 5.04427 49.7722 6.12378 49.7722H31.14C32.2193 49.7722 33.0945 48.8972 33.0945 47.8177C33.0945 46.7382 32.2193 45.8633 31.14 45.8633Z" fill="#282828"/>
<path d="M67.9615 19.3345C67.1984 18.5714 65.9607 18.5714 65.1976 19.3347L47.8173 36.7147L38.7759 27.6733C38.0126 26.91 36.7751 26.91 36.0121 27.6733C35.2487 28.4366 35.2487 29.6738 36.0121 30.4372L46.4355 40.8606C46.8171 41.2424 47.3173 41.4331 47.8173 41.4331C48.3174 41.4331 48.8179 41.2424 49.1991 40.8606L67.9612 22.0986C68.7245 21.335 68.7245 20.0978 67.9615 19.3345Z" fill="#282828"/>
</svg>
