<svg width="14" height="9" viewBox="0 0 14 9" fill="none" xmlns="http://www.w3.org/2000/svg">
<path d="M9.28027 4.45198L14 7.17168V1.61743L9.28027 4.45198Z" fill="white"/>
<path d="M0 1.61743V7.17168L4.71973 4.45198L0 1.61743Z" fill="white"/>
<path d="M13.1249 0H0.874874C0.438248 0 0.0917481 0.296694 0.026123 0.678727L6.99988 4.86674L13.9736 0.678727C13.908 0.296694 13.5615 0 13.1249 0Z" fill="white"/>
<path d="M8.47881 4.93375L7.24068 5.67708C7.16719 5.72095 7.08406 5.74248 7.00006 5.74248C6.91606 5.74248 6.83294 5.72095 6.75944 5.67708L5.52131 4.93295L0.0280762 8.10009C0.095451 8.47893 0.4402 8.77323 0.875074 8.77323H13.125C13.5599 8.77323 13.9047 8.47893 13.972 8.10009L8.47881 4.93375Z" fill="white"/>
</svg>
