<svg width="104" height="93" viewBox="0 0 104 93" fill="none" xmlns="http://www.w3.org/2000/svg">
<path d="M97.9327 0H5.43423C2.4378 0 0 2.4378 0 5.43423V72.033C0 75.0295 2.4378 77.4673 5.43423 77.4673H40.469L39.0525 88.7983H33.1838C32.2261 88.7983 31.4494 89.5747 31.4494 90.5327C31.4494 91.4904 32.2259 92.2671 33.1838 92.2671H70.1831C71.1409 92.2671 71.9175 91.4906 71.9175 90.5327C71.9175 89.5749 71.1411 88.7983 70.1831 88.7983H64.3144L62.898 77.4673H97.9327C100.929 77.4673 103.367 75.0295 103.367 72.033V5.43423C103.367 2.4378 100.929 0 97.9327 0ZM42.548 88.7985L43.9645 77.4675H59.4023L60.8187 88.7985H42.548ZM99.8983 72.033C99.8983 73.117 99.0166 73.9986 97.9327 73.9986H5.43423C4.35029 73.9986 3.46865 73.117 3.46865 72.033V5.43423C3.46865 4.3503 4.35029 3.46865 5.43423 3.46865H97.9327C99.0166 3.46865 99.8983 4.3503 99.8983 5.43423V72.033Z" fill="#F4CC3B"/>
<path d="M81.2829 7.3999H9.13421C8.17645 7.3999 7.39978 8.17637 7.39978 9.13433V66.4834C7.39978 67.4412 8.17624 68.2178 9.13421 68.2178H14.6847C15.6425 68.2178 16.4192 67.4414 16.4192 66.4834C16.4192 65.5256 15.6429 64.749 14.6847 64.749H10.8684V10.8685H81.2829C82.2407 10.8685 83.0174 10.0921 83.0174 9.13413C83.0174 8.17657 82.2407 7.3999 81.2829 7.3999Z" fill="#F4CC3B"/>
<path d="M94.2327 7.3999H88.6828C87.725 7.3999 86.9484 8.17637 86.9484 9.13433C86.9484 10.0921 87.7248 10.8688 88.6828 10.8688H92.4983V64.749H22.0836C21.1258 64.749 20.3492 65.5254 20.3492 66.4834C20.3492 67.4412 21.1256 68.2178 22.0836 68.2178H94.2325C95.1903 68.2178 95.9669 67.4414 95.9669 66.4834V9.13433C95.9671 8.17657 95.1905 7.3999 94.2327 7.3999Z" fill="#F4CC3B"/>
<path d="M83.1328 16.6499C80.1364 16.6499 77.6986 19.0877 77.6986 22.0841C77.6986 23.0062 77.9301 23.8747 78.3368 24.6362L64.4406 39.3498C63.7483 39.0297 62.9781 38.8494 62.1665 38.8494C60.72 38.8494 59.4049 39.4185 58.4303 40.3431L46.5627 34.0604C46.6092 33.7747 46.6344 33.4822 46.6344 33.1838C46.6344 30.1873 44.1966 27.7495 41.2002 27.7495C38.2037 27.7495 35.7659 30.1873 35.7659 33.1838C35.7659 34.0218 35.9569 34.8162 36.2971 35.5257L22.7199 48.7038C21.9743 48.3186 21.1296 48.0993 20.234 48.0993C17.2376 48.0993 14.7998 50.5371 14.7998 53.5335C14.7998 56.53 17.2376 58.9678 20.234 58.9678C23.2305 58.9678 25.6683 56.53 25.6683 53.5335C25.6683 52.6955 25.4773 51.9011 25.1371 51.1916L38.7143 38.0136C39.4599 38.3988 40.3048 38.618 41.2002 38.618C42.6467 38.618 43.9618 38.0489 44.9363 37.1242L56.8039 43.407C56.7575 43.6927 56.7323 43.9852 56.7323 44.2836C56.7323 47.28 59.1701 49.7178 62.1665 49.7178C65.1629 49.7178 67.6007 47.28 67.6007 44.2836C67.6007 43.3616 67.3692 42.4929 66.9624 41.7315L80.8585 27.0179C81.5508 27.3381 82.321 27.5184 83.1326 27.5184C86.129 27.5184 88.5668 25.0806 88.5668 22.0841C88.5668 19.0877 86.1294 16.6499 83.1328 16.6499ZM20.234 55.4991C19.1501 55.4991 18.2685 54.6175 18.2685 53.5335C18.2685 52.4496 19.1501 51.5679 20.234 51.5679C21.318 51.5679 22.1996 52.4496 22.1996 53.5335C22.1996 54.6175 21.3178 55.4991 20.234 55.4991ZM41.2004 35.1496C40.1164 35.1496 39.2348 34.2679 39.2348 33.184C39.2348 32.1 40.1162 31.2184 41.2004 31.2184C42.2843 31.2184 43.166 32.1 43.166 33.184C43.166 34.2677 42.2843 35.1496 41.2004 35.1496ZM62.1665 46.2494C61.0826 46.2494 60.2009 45.3677 60.2009 44.2838C60.2009 43.1999 61.0826 42.3182 62.1665 42.3182C63.2504 42.3182 64.1321 43.1999 64.1321 44.2838C64.1321 45.3675 63.2504 46.2494 62.1665 46.2494ZM83.1328 24.0497C82.0489 24.0497 81.1672 23.1681 81.1672 22.0841C81.1672 21.0002 82.0489 20.1185 83.1328 20.1185C84.2168 20.1185 85.0984 21.0002 85.0984 22.0841C85.0984 23.1681 84.2168 24.0497 83.1328 24.0497Z" fill="#F4CC3B"/>
<path d="M83.1329 31.4492C82.1751 31.4492 81.3984 32.2257 81.3984 33.1836V59.0831C81.3984 60.0409 82.1749 60.8175 83.1329 60.8175C84.0906 60.8175 84.8673 60.0411 84.8673 59.0831V33.1836C84.8673 32.2259 84.0908 31.4492 83.1329 31.4492Z" fill="#F4CC3B"/>
<path d="M41.2004 42.5493C40.2426 42.5493 39.4659 43.3258 39.4659 44.2837V59.0836C39.4659 60.0413 40.2424 60.818 41.2004 60.818C42.1581 60.818 42.9348 60.0415 42.9348 59.0836V44.2837C42.9348 43.3258 42.1581 42.5493 41.2004 42.5493Z" fill="#F4CC3B"/>
<path d="M62.1665 53.6489C61.2088 53.6489 60.4321 54.4254 60.4321 55.3833V59.0834C60.4321 60.0411 61.2086 60.8178 62.1665 60.8178C63.1245 60.8178 63.901 60.0413 63.901 59.0834V55.3833C63.901 54.4254 63.1243 53.6489 62.1665 53.6489Z" fill="#F4CC3B"/>
</svg>
