<svg width="104" height="93" viewBox="0 0 104 93" fill="none" xmlns="http://www.w3.org/2000/svg">
<path d="M97.9327 0.542969H5.43423C2.4378 0.542969 0 2.98077 0 5.9772V72.576C0 75.5724 2.4378 78.0102 5.43423 78.0102H40.469L39.0525 89.3412H33.1838C32.2261 89.3412 31.4494 90.1177 31.4494 91.0757C31.4494 92.0334 32.2259 92.8101 33.1838 92.8101H70.1831C71.1409 92.8101 71.9175 92.0336 71.9175 91.0757C71.9175 90.1179 71.1411 89.3412 70.1831 89.3412H64.3144L62.898 78.0102H97.9327C100.929 78.0102 103.367 75.5724 103.367 72.576V5.9772C103.367 2.98077 100.929 0.542969 97.9327 0.542969ZM42.548 89.3414L43.9645 78.0104H59.4023L60.8187 89.3414H42.548ZM99.8983 72.576C99.8983 73.6599 99.0166 74.5416 97.9327 74.5416H5.43423C4.35029 74.5416 3.46865 73.6599 3.46865 72.576V5.9772C3.46865 4.89326 4.35029 4.01162 5.43423 4.01162H97.9327C99.0166 4.01162 99.8983 4.89326 99.8983 5.9772V72.576Z" fill="#F4CC3B"/>
<path d="M81.2829 7.94287H9.13421C8.17645 7.94287 7.39978 8.71934 7.39978 9.6773V67.0264C7.39978 67.9841 8.17624 68.7608 9.13421 68.7608H14.6847C15.6425 68.7608 16.4192 67.9843 16.4192 67.0264C16.4192 66.0686 15.6429 65.2919 14.6847 65.2919H10.8684V11.4115H81.2829C82.2407 11.4115 83.0174 10.6351 83.0174 9.67709C83.0174 8.71954 82.2407 7.94287 81.2829 7.94287Z" fill="#F4CC3B"/>
<path d="M94.2327 7.94287H88.6827C87.725 7.94287 86.9483 8.71934 86.9483 9.6773C86.9483 10.6351 87.7248 11.4117 88.6827 11.4117H92.4982V65.2919H22.0835C21.1258 65.2919 20.3491 66.0684 20.3491 67.0264C20.3491 67.9841 21.1256 68.7608 22.0835 68.7608H94.2325C95.1902 68.7608 95.9669 67.9843 95.9669 67.0264V9.6773C95.9671 8.71954 95.1904 7.94287 94.2327 7.94287Z" fill="#F4CC3B"/>
<path d="M83.1328 17.1929C80.1364 17.1929 77.6986 19.6307 77.6986 22.6271C77.6986 23.5491 77.9301 24.4177 78.3368 25.1792L64.4406 39.8928C63.7483 39.5726 62.9781 39.3923 62.1665 39.3923C60.72 39.3923 59.4049 39.9615 58.4303 40.8861L46.5627 34.6033C46.6092 34.3177 46.6344 34.0251 46.6344 33.7267C46.6344 30.7303 44.1966 28.2925 41.2002 28.2925C38.2037 28.2925 35.7659 30.7303 35.7659 33.7267C35.7659 34.5648 35.9569 35.3592 36.2971 36.0686L22.7199 49.2467C21.9743 48.8615 21.1296 48.6423 20.234 48.6423C17.2376 48.6423 14.7998 51.0801 14.7998 54.0765C14.7998 57.0729 17.2376 59.5107 20.234 59.5107C23.2305 59.5107 25.6683 57.0729 25.6683 54.0765C25.6683 53.2385 25.4773 52.444 25.1371 51.7346L38.7143 38.5565C39.4599 38.9417 40.3048 39.161 41.2002 39.161C42.6467 39.161 43.9618 38.5918 44.9363 37.6672L56.8039 43.95C56.7575 44.2356 56.7323 44.5282 56.7323 44.8266C56.7323 47.823 59.1701 50.2608 62.1665 50.2608C65.1629 50.2608 67.6007 47.823 67.6007 44.8266C67.6007 43.9045 67.3692 43.0358 66.9624 42.2745L80.8585 27.5609C81.5508 27.8811 82.321 28.0613 83.1326 28.0613C86.129 28.0613 88.5668 25.6235 88.5668 22.6271C88.5668 19.6307 86.1294 17.1929 83.1328 17.1929ZM20.234 56.0421C19.1501 56.0421 18.2685 55.1604 18.2685 54.0765C18.2685 52.9926 19.1501 52.1109 20.234 52.1109C21.318 52.1109 22.1996 52.9926 22.1996 54.0765C22.1996 55.1604 21.3178 56.0421 20.234 56.0421ZM41.2004 35.6925C40.1164 35.6925 39.2348 34.8109 39.2348 33.7269C39.2348 32.643 40.1162 31.7614 41.2004 31.7614C42.2843 31.7614 43.166 32.643 43.166 33.7269C43.166 34.8107 42.2843 35.6925 41.2004 35.6925ZM62.1665 46.7924C61.0826 46.7924 60.2009 45.9107 60.2009 44.8268C60.2009 43.7428 61.0826 42.8612 62.1665 42.8612C63.2504 42.8612 64.1321 43.7428 64.1321 44.8268C64.1321 45.9105 63.2504 46.7924 62.1665 46.7924ZM83.1328 24.5927C82.0489 24.5927 81.1672 23.711 81.1672 22.6271C81.1672 21.5432 82.0489 20.6615 83.1328 20.6615C84.2168 20.6615 85.0984 21.5432 85.0984 22.6271C85.0984 23.711 84.2168 24.5927 83.1328 24.5927Z" fill="#F4CC3B"/>
<path d="M83.1329 31.9922C82.1751 31.9922 81.3984 32.7686 81.3984 33.7266V59.6261C81.3984 60.5838 82.1749 61.3605 83.1329 61.3605C84.0906 61.3605 84.8673 60.584 84.8673 59.6261V33.7266C84.8673 32.7689 84.0908 31.9922 83.1329 31.9922Z" fill="#F4CC3B"/>
<path d="M41.2004 43.0923C40.2426 43.0923 39.4659 43.8687 39.4659 44.8267V59.6266C39.4659 60.5843 40.2424 61.361 41.2004 61.361C42.1581 61.361 42.9348 60.5845 42.9348 59.6266V44.8267C42.9348 43.8687 42.1581 43.0923 41.2004 43.0923Z" fill="#F4CC3B"/>
<path d="M62.1665 54.1919C61.2088 54.1919 60.4321 54.9684 60.4321 55.9263V59.6263C60.4321 60.5841 61.2086 61.3607 62.1665 61.3607C63.1245 61.3607 63.901 60.5843 63.901 59.6263V55.9263C63.901 54.9684 63.1243 54.1919 62.1665 54.1919Z" fill="#F4CC3B"/>
</svg>
